<?xml version="1.0" encoding="UTF-8" standalone="no"?>
<svg
   xmlns:dc="http://purl.org/dc/elements/1.1/"
   xmlns:cc="http://creativecommons.org/ns#"
   xmlns:rdf="http://www.w3.org/1999/02/22-rdf-syntax-ns#"
   xmlns:svg="http://www.w3.org/2000/svg"
   xmlns="http://www.w3.org/2000/svg"
   xmlns:xlink="http://www.w3.org/1999/xlink"
   xmlns:sodipodi="http://sodipodi.sourceforge.net/DTD/sodipodi-0.dtd"
   xmlns:inkscape="http://www.inkscape.org/namespaces/inkscape"
   width="256"
   height="256"
   version="1.1"
   viewBox="0 0 67.73 67.73"
   id="svg84"
   sodipodi:docname="line.svg"
   inkscape:version="0.92.4 (5da689c313, 2019-01-14)">
  <metadata
     id="metadata88">
    <rdf:RDF>
      <cc:Work
         rdf:about="">
        <dc:format>image/svg+xml</dc:format>
        <dc:type
           rdf:resource="http://purl.org/dc/dcmitype/StillImage" />
      </cc:Work>
    </rdf:RDF>
  </metadata>
  <sodipodi:namedview
     pagecolor="#ffffff"
     bordercolor="#666666"
     borderopacity="1"
     objecttolerance="10"
     gridtolerance="10"
     guidetolerance="10"
     inkscape:pageopacity="0"
     inkscape:pageshadow="2"
     inkscape:window-width="1600"
     inkscape:window-height="836"
     id="namedview86"
     showgrid="false"
     showguides="true"
     inkscape:guide-bbox="true"
     inkscape:zoom="1.84375"
     inkscape:cx="164.56257"
     inkscape:cy="139.9775"
     inkscape:window-x="0"
     inkscape:window-y="27"
     inkscape:window-maximized="1"
     inkscape:current-layer="svg84" />
  <defs
     id="defs52">
    <linearGradient
       id="linearGradient1108-7"
       x1="296"
       x2="296"
       y1="-212"
       y2="236"
       gradientUnits="userSpaceOnUse">
      <stop
         style="stop-color:#ffffff"
         offset="0"
         id="stop2" />
      <stop
         style="stop-color:#ffffff;stop-opacity:.09803922"
         offset=".125"
         id="stop4" />
      <stop
         style="stop-color:#000000;stop-opacity:.09803922"
         offset=".925"
         id="stop6" />
      <stop
         style="stop-color:#000000;stop-opacity:.49803922"
         offset="1"
         id="stop8" />
    </linearGradient>
    <clipPath
       id="clipPath1082-3-36753">
      <path
         d="M 361.9375,-212 C 507.2348,-212 528,-191.28677 528,-46.125 V 70.125 C 528,215.28618 507.2348,236 361.9375,236 H 214.0625 C 68.7652,236 48,215.28618 48,70.125 V -46.125 C 48,-191.28677 68.7652,-212 214.0625,-212 Z"
         style="fill:#8c59d9"
         id="path11" />
    </clipPath>
    <linearGradient
       id="linearGradient4177"
       x1="121.976"
       x2="108.56"
       y1="330.553"
       y2="348.038"
       gradientTransform="matrix(.13229166 0 0 .13229166 -.64346832 226.99971)"
       gradientUnits="userSpaceOnUse"
       xlink:href="#linearGradient4120" />
    <linearGradient
       id="linearGradient4120">
      <stop
         style="stop-color:#e6a240;stop-opacity:.996"
         offset="0"
         id="stop15" />
      <stop
         style="stop-color:#eab261;stop-opacity:.27450982"
         offset="1"
         id="stop17" />
    </linearGradient>
    <linearGradient
       id="linearGradient4164"
       x1="354.037"
       x2="370.342"
       y1="292.996"
       y2="314.245"
       gradientTransform="matrix(.13229166 0 0 .13229166 -.64346832 226.99971)"
       gradientUnits="userSpaceOnUse"
       xlink:href="#linearGradient4120" />
    <linearGradient
       id="linearGradient4134"
       x1="211.404"
       x2="211.404"
       y1="344.742"
       y2="375.678"
       gradientTransform="matrix(.9804643 0 0 .9804643 -179.95032 -89.258974)"
       gradientUnits="userSpaceOnUse">
      <stop
         style="stop-color:#fdfdfb"
         offset="0"
         id="stop21" />
      <stop
         style="stop-color:#f0e9df"
         offset="1"
         id="stop23" />
    </linearGradient>
    <linearGradient
       id="linearGradient4143"
       x1="297.987"
       x2="299.397"
       y1="344.067"
       y2="141.4"
       gradientTransform="matrix(.13229166 0 0 .13229166 -.64346832 229.38096)"
       gradientUnits="userSpaceOnUse">
      <stop
         style="stop-color:#f3e6d2;stop-opacity:.99607843"
         offset="0"
         id="stop26" />
      <stop
         style="stop-color:#f7f4ee"
         offset="1"
         id="stop28" />
    </linearGradient>
    <filter
       id="filter4500"
       x="-.01"
       y="-.01"
       width="1.021"
       height="1.028"
       style="color-interpolation-filters:sRGB">
      <feGaussianBlur
         stdDeviation="1.346"
         id="feGaussianBlur31" />
    </filter>
    <linearGradient
       id="linearGradient4479"
       x1="211.404"
       x2="232.776"
       y1="344.742"
       y2="375.408"
       gradientTransform="matrix(7.4113839,0,0,7.4113839,-1355.3904,-2406.6168)"
       gradientUnits="userSpaceOnUse">
      <stop
         style="stop-color:#000000;stop-opacity:0"
         offset="0"
         id="stop34" />
      <stop
         style="stop-color:#000000"
         offset=".67"
         id="stop36" />
      <stop
         style="stop-color:#000000;stop-opacity:0"
         offset="1"
         id="stop38" />
    </linearGradient>
    <linearGradient
       id="linearGradient985"
       x1="24"
       x2="376"
       y1="28"
       y2="380"
       gradientTransform="matrix(.26458333 0 0 .26458333 -6.9934684 221.97263)"
       gradientUnits="userSpaceOnUse">
      <stop
         style="stop-color:#00b900;stop-opacity:1"
         offset="0"
         id="stop41" />
      <stop
         style="stop-color:#fac82e"
         offset="1"
         id="stop43" />
    </linearGradient>
    <filter
       id="filter958"
       x="-.02"
       y="-.03"
       width="1.046"
       height="1.05"
       style="color-interpolation-filters:sRGB">
      <feGaussianBlur
         stdDeviation="2.32"
         id="feGaussianBlur46" />
    </filter>
    <filter
       id="filter4569"
       x="-.01"
       y="-.01"
       width="1.023"
       height="1.025"
       style="color-interpolation-filters:sRGB">
      <feGaussianBlur
         stdDeviation="1.16"
         id="feGaussianBlur49" />
    </filter>
  </defs>
  <g
     transform="translate(0,-229.26666)"
     id="g82">
    <path
       transform="matrix(.26458333 0 0 .26458333 -1.8735229e-8 232.67026)"
       d="m162.53675 3.5680001c72.64865 0 83.03125 10.356615 83.03125 82.937505v58.125005c0 72.58059-10.3826 82.9375-83.03125 82.9375h-73.937496c-72.648654 0-83.031254-10.35691-83.031254-82.9375v-58.125005c0-72.58089 10.3826-82.937505 83.031254-82.937505z"
       style="filter:url(#filter4569);opacity:.1"
       id="path54" />
    <path
       transform="matrix(.26458333 0 0 .26458333 -1.8735229e-8 232.67026)"
       d="m162.53675 5.5680001c72.64865 0 83.03125 10.356615 83.03125 82.937505v58.125005c0 72.58059-10.3826 82.9375-83.03125 82.9375h-73.937496c-72.648654 0-83.031254-10.35691-83.031254-82.9375v-58.125005c0-72.58089 10.3826-82.937505 83.031254-82.937505z"
       style="filter:url(#filter958);opacity:.2"
       id="path56" />
    <path
       d="m43.004513 233.61429c19.221622 0 21.968685 2.74019 21.968685 21.94388v15.37891c0 19.20362-2.747063 21.94388-21.968685 21.94388h-19.56263c-19.221622 0-21.968685-2.74026-21.968685-21.94388v-15.37891c0-19.20369 2.7470629-21.94388 21.968685-21.94388z"
       style="fill:url(#linearGradient985)"
       id="path58" />
    <path
       d="m64.941159 252.37749-53.315092 39.72006c3.00092 0.59984 6.85916 0.78341 11.815816 0.78341h19.56263c19.221622 0 21.968685-2.74026 21.968685-21.94388v-15.37891c0-1.11685-0.01077-2.1725-0.03204-3.18068z"
       style="fill:#ffffff;opacity:.1"
       id="path60" />
    <path
       d="m54.389864 259.90283-21.141965 16.05361h16.291655c1.89148 0 3.162237-0.40113 3.814506-1.18381 0.684845-0.8153 1.035804-2.15292 1.035804-4.0118z"
       style="fill:url(#linearGradient4164);opacity:.1"
       id="path72" />
    <path
       d="m12.056532 270.10874v0.65209c0 1.85888 0.350988 3.1965 1.035833 4.0118 0.652239 0.78268 1.936002 1.40509 3.814502 1.18381h4.492213z"
       style="fill:url(#linearGradient4177);opacity:.1"
       id="path74" />
    <path
       transform="matrix(.13229167 0 0 .13229167 -4.8768014 261.66013)"
       d="M 361.9375,-212 C 507.2348,-212 528,-191.28677 528,-46.125 V 70.125 C 528,215.28618 507.2348,236 361.9375,236 H 214.0625 C 68.7652,236 48,215.28618 48,70.125 V -46.125 C 48,-191.28677 68.7652,-212 214.0625,-212 Z"
       clip-path="url(#clipPath1082-3-36753)"
       style="fill:none;opacity:.6;stroke-linecap:round;stroke-linejoin:round;stroke-width:8;stroke:url(#linearGradient1108-7)"
       id="path80" />
  </g>
  <path
     style="opacity:1;vector-effect:none;fill:#ffffff;fill-opacity:1;stroke:none;stroke-width:0.50160247;stroke-linecap:round;stroke-linejoin:round;stroke-miterlimit:4;stroke-dasharray:none;stroke-dashoffset:0;stroke-opacity:0.50196078;paint-order:normal"
     d="m 33.102143,13.784111 c -8.135772,0.01555 -16.245052,3.654828 -19.807417,10.908878 -1.839272,3.745303 -1.91362,8.59106 -0.191042,12.461686 2.216491,4.980447 8.182674,9.37441 14.602315,10.756044 3.856907,0.83008 4.146458,1.141662 3.749282,4.029472 -0.319017,2.31953 -0.282462,2.417881 0.89152,2.417881 0.674999,0 3.676284,-1.612322 6.693251,-3.59645 6.490339,-4.268408 12.776449,-10.298507 14.36132,-13.775456 1.707744,-3.746549 1.577779,-8.600231 -0.332127,-12.369598 C 49.400709,17.376413 41.237909,13.768487 33.102143,13.784111 Z M 21.684537,26.770023 c 0,0 0.0023,3.479285 0.0023,3.761929 v 3.762019 h 2.006409 c 0.05599,0 1.991085,5.82e-4 1.991085,5.82e-4 v 2.005525 c 0,0 -2.915998,3.04e-4 -2.994288,3.04e-4 h -3.009615 v -4.765224 c 0,-0.39584 0.0023,-4.765135 0.0023,-4.765135 z m 6.773864,0 h 1.253939 c 0,0 6.8e-5,4.599502 6.8e-5,4.765224 l -1.1e-5,4.774974 c 0,0 -0.02677,-0.0097 -1.253996,-0.0097 -1.224082,0 -1.253991,0.0097 -1.253991,0.0097 l -1.5e-5,-4.774974 3.9e-5,-4.765224 z m 4.748105,0 3.927802,5.906898 0.0023,-3.080484 -0.0023,-2.826414 h 2.108062 c 0,0 5.26e-4,4.568939 5.26e-4,4.765224 0,0.13861 -3.27e-4,4.774974 -3.27e-4,4.774974 h -2.108232 l -3.910703,-5.737929 v 2.864621 c 0,0.136316 -0.0011,2.87339 -0.0011,2.87339 0,0 -0.163731,-0.0097 -1.002082,-0.0097 -0.903613,0 -1.002974,0.0097 -1.002974,0.0097 0,0 -2.31e-4,-4.636311 -2.31e-4,-4.774974 0,-0.143994 3.12e-4,-4.765225 3.12e-4,-4.765225 z m 7.541158,0 h 6.503712 v 2.006672 h -4.488917 v 1.496306 h 4.488917 v 2.091426 h -4.488917 v 1.836376 h 4.488917 c 0,0 0.01706,0.338139 0.01706,1.125856 0,0.864813 -0.01706,0.983562 -0.01706,0.983562 l -6.503712,-0.0097 v -4.765223 z"
     id="rect4612"
     inkscape:connector-curvature="0"
     sodipodi:nodetypes="cssssssccccscsccscsccscscscscscccccscccscscsccccccccccccscccc" />
</svg>
